# xmcd
# 
# Track frame offsets:
#     183
#     11453
#     20860
#     36055
#     48378
#     58828
#     71105
#     83283
#     96093
#     107633
#     118720
#     129818
#     140090
#     150878
# 
# Disc length: 2150
# 
# Revision: 4
# Processed by: cddbd v1.5.2PL0 Copyright (c) Steve Scherf et al.
# Submitted via: fre:ac v1.1beta1pre5
# 
DISCID=af08640e
DTITLE=The Beatles - Rubber Soul
DYEAR=1965
DGENRE=Rock
TTITLE0=Drive My Car
TTITLE1=Norwegian Wood (This Bird Has Flown)
TTITLE2=You Won't See Me
TTITLE3=Nowhere Man
TTITLE4=Think For Yourself
TTITLE5=The Word
TTITLE6=Michelle
TTITLE7=What Goes On
TTITLE8=Girl
TTITLE9=I'm Looking Through You
TTITLE10=In My Life
TTITLE11=Wait
TTITLE12=If I Needed Someone
TTITLE13=Run For Your Life
EXTD=
EXTT0=
EXTT1=
EXTT2=
EXTT3=
EXTT4=
EXTT5=
EXTT6=
EXTT7=
EXTT8=
EXTT9=
EXTT10=
EXTT11=
EXTT12=
EXTT13=
PLAYORDER=
